<svg xmlns="http://www.w3.org/2000/svg" viewBox="0 0 800 400">
  <defs>
    <linearGradient id="bg" x1="0%" y1="0%" x2="100%" y2="100%">
      <stop offset="0%" stop-color="#0a0e1a"/>
      <stop offset="100%" stop-color="#1a1f3a"/>
    </linearGradient>
    <linearGradient id="grad" x1="0%" y1="0%" x2="100%" y2="100%">
      <stop offset="0%" stop-color="#6366f1"/>
      <stop offset="50%" stop-color="#8b5cf6"/>
      <stop offset="100%" stop-color="#22d3ee"/>
    </linearGradient>
  </defs>
  <rect width="800" height="400" fill="url(#bg)"/>
  <g transform="translate(400,210)">
    <circle cx="0" cy="0" r="100" fill="none" stroke="url(#grad)" stroke-width="2" opacity="0.4"/>
    <circle cx="0" cy="0" r="60" fill="none" stroke="url(#grad)" stroke-width="2" opacity="0.6"/>
    <circle cx="0" cy="0" r="22" fill="url(#grad)"/>
    <g fill="url(#grad)">
      <circle cx="0" cy="-100" r="14"/>
      <circle cx="100" cy="0" r="14"/>
      <circle cx="0" cy="100" r="14"/>
      <circle cx="-100" cy="0" r="14"/>
      <circle cx="70" cy="-70" r="10"/>
      <circle cx="70" cy="70" r="10"/>
      <circle cx="-70" cy="70" r="10"/>
      <circle cx="-70" cy="-70" r="10"/>
    </g>
    <line x1="0" y1="0" x2="0" y2="-100" stroke="url(#grad)" stroke-width="2"/>
    <line x1="0" y1="0" x2="100" y2="0" stroke="url(#grad)" stroke-width="2"/>
    <line x1="0" y1="0" x2="0" y2="100" stroke="url(#grad)" stroke-width="2"/>
    <line x1="0" y1="0" x2="-100" y2="0" stroke="url(#grad)" stroke-width="2"/>
  </g>
  <text x="400" y="60" text-anchor="middle" font-family="system-ui,sans-serif" font-size="42" font-weight="900" fill="#fff">T-agent</text>
  <text x="400" y="350" text-anchor="middle" font-family="system-ui,sans-serif" font-size="16" fill="#94a3b8">多智能体协作框架 · v0.2</text>
</svg>
