<svg xmlns="http://www.w3.org/2000/svg" viewBox="0 0 200 200">
  <defs>
    <linearGradient id="g" x1="0%" y1="0%" x2="100%" y2="100%">
      <stop offset="0%" stop-color="#6366f1"/>
      <stop offset="50%" stop-color="#8b5cf6"/>
      <stop offset="100%" stop-color="#22d3ee"/>
    </linearGradient>
    <radialGradient id="r" cx="50%" cy="40%">
      <stop offset="0%" stop-color="rgba(255,255,255,0.3)"/>
      <stop offset="100%" stop-color="rgba(255,255,255,0)"/>
    </radialGradient>
  </defs>
  <circle cx="100" cy="100" r="98" fill="url(#g)"/>
  <circle cx="100" cy="100" r="98" fill="url(#r)"/>
  <g fill="none" stroke="#fff" stroke-width="4" stroke-linecap="round" stroke-linejoin="round" opacity="0.9">
    <circle cx="100" cy="100" r="22"/>
    <path d="M100 50 L100 78"/>
    <path d="M100 122 L100 150"/>
    <path d="M50 100 L78 100"/>
    <path d="M122 100 L150 100"/>
    <path d="M65 65 L85 85"/>
    <path d="M115 115 L135 135"/>
    <path d="M65 135 L85 115"/>
    <path d="M115 85 L135 65"/>
  </g>
  <g fill="#fff" opacity="0.9">
    <circle cx="100" cy="50" r="5"/>
    <circle cx="100" cy="150" r="5"/>
    <circle cx="50" cy="100" r="5"/>
    <circle cx="150" cy="100" r="5"/>
    <circle cx="65" cy="65" r="4"/>
    <circle cx="135" cy="65" r="4"/>
    <circle cx="65" cy="135" r="4"/>
    <circle cx="135" cy="135" r="4"/>
  </g>
</svg>
